<svg xmlns="http://www.w3.org/2000/svg" xmlns:xlink="http://www.w3.org/1999/xlink" width="500" zoomAndPan="magnify" viewBox="0 0 375 374.999991" height="500" preserveAspectRatio="xMidYMid meet" version="1.0"><defs><clipPath id="12b45a18d8"><path d="M 137 10.226562 L 214 10.226562 L 214 87 L 137 87 Z M 137 10.226562 " clip-rule="nonzero"/></clipPath><clipPath id="e83a9f16fe"><path d="M 137 10.226562 L 187 10.226562 L 187 87 L 137 87 Z M 137 10.226562 " clip-rule="nonzero"/></clipPath><clipPath id="4ab7f45914"><path d="M 42 54 L 375 54 L 375 374.726562 L 42 374.726562 Z M 42 54 " clip-rule="nonzero"/></clipPath><clipPath id="1fbdd1d5a8"><path d="M 42 166 L 117 166 L 117 374.726562 L 42 374.726562 Z M 42 166 " clip-rule="nonzero"/></clipPath><clipPath id="d0a13cd1e1"><path d="M 42 342 L 72 342 L 72 374.726562 L 42 374.726562 Z M 42 342 " clip-rule="nonzero"/></clipPath><clipPath id="740995f789"><path d="M 139 10.226562 L 214 10.226562 L 214 48 L 139 48 Z M 139 10.226562 " clip-rule="nonzero"/></clipPath><clipPath id="4c2bb0a6fa"><path d="M 139 10.226562 L 187 10.226562 L 187 39 L 139 39 Z M 139 10.226562 " clip-rule="nonzero"/></clipPath></defs><g clip-path="url(#12b45a18d8)"><path fill="#f9dca2" d="M 213.800781 48.539062 C 213.800781 50.046875 213.71875 51.53125 213.542969 52.992188 C 211.339844 72.113281 195.109375 86.96875 175.414062 86.96875 C 154.210938 86.96875 137.019531 69.761719 137.019531 48.539062 C 137.019531 45.648438 137.339844 42.824219 137.953125 40.117188 C 138.816406 36.222656 140.277344 32.554688 142.226562 29.207031 C 148.882812 17.792969 161.25 10.113281 175.414062 10.113281 C 194.128906 10.113281 209.726562 23.535156 213.117188 41.277344 C 213.566406 43.632812 213.800781 46.050781 213.800781 48.539062 Z M 213.800781 48.539062 " fill-opacity="1" fill-rule="nonzero"/></g><g clip-path="url(#e83a9f16fe)"><path fill="#e5c691" d="M 159.183594 48.539062 C 159.183594 31.171875 170.691406 16.507812 186.492188 11.746094 C 182.980469 10.6875 179.265625 10.113281 175.410156 10.113281 C 154.207031 10.113281 137.019531 27.320312 137.019531 48.539062 C 137.019531 69.761719 154.207031 86.960938 175.410156 86.960938 C 179.265625 86.960938 182.980469 86.386719 186.492188 85.332031 C 170.691406 80.570312 159.183594 65.902344 159.183594 48.539062 Z M 159.183594 48.539062 " fill-opacity="1" fill-rule="nonzero"/></g><path fill="#efbc4b" d="M 79.148438 189.175781 C 58.863281 169.027344 33.78125 188.332031 35.164062 214.824219 C 37.03125 250.53125 0.328125 245.007812 0.328125 245.007812 C 0.328125 245.007812 13.390625 228.640625 9.277344 196.609375 C 5.171875 164.582031 25.984375 128.574219 58.683594 141.5 C 78.476562 149.328125 87.800781 163.355469 92.082031 173.210938 " fill-opacity="1" fill-rule="nonzero"/><path fill="#a56247" d="M 279.792969 313.796875 L 224.105469 319.484375 L 195.0625 305.714844 L 214.933594 285.824219 L 234.804688 301.128906 L 257.734375 301.128906 L 218.019531 261.378906 L 235.8125 233.53125 L 285.234375 294.773438 L 286.871094 296.800781 C 292.089844 303.269531 288.0625 312.953125 279.792969 313.796875 Z M 279.792969 313.796875 " fill-opacity="1" fill-rule="nonzero"/><path fill="#8c4c35" d="M 285.234375 294.773438 C 275.199219 293.734375 264.660156 292.128906 255.175781 289.625 C 255.167969 289.621094 255.167969 289.621094 255.160156 289.621094 C 250.320312 288.34375 245.757812 286.835938 241.683594 285.058594 L 218.019531 261.378906 L 235.8125 233.53125 Z M 285.234375 294.773438 " fill-opacity="1" fill-rule="nonzero"/><g clip-path="url(#4ab7f45914)"><path fill="#a56247" d="M 374.675781 161.140625 L 362.988281 172.832031 L 361.277344 174.546875 C 355.589844 180.238281 346.371094 180.238281 340.683594 174.546875 L 336.839844 170.699219 L 323.003906 167.398438 C 319.152344 166.480469 315.539062 165.027344 312.238281 163.09375 C 308.890625 161.144531 305.855469 158.71875 303.242188 155.917969 C 297.777344 150.089844 294.070312 142.625 292.890625 134.363281 C 292.890625 134.363281 288.574219 141.730469 288.574219 153.828125 C 288.574219 158.132812 289.125 163.027344 290.601562 168.402344 C 291.296875 170.914062 292.1875 173.527344 293.320312 176.234375 C 293.75 177.261719 294.214844 178.300781 294.71875 179.359375 C 295.925781 181.882812 297.347656 184.484375 299.007812 187.144531 C 318.113281 217.746094 294.421875 248.34375 294.421875 248.34375 L 340.15625 265.507812 C 342.210938 266.28125 343.765625 267.996094 344.328125 270.113281 C 348.261719 284.808594 360.085938 342.714844 308.179688 360.027344 L 305.886719 330.195312 L 327.285156 323.308594 L 327.285156 279.710938 C 327.285156 279.710938 285.722656 280.847656 255.175781 272.796875 C 255.167969 272.789062 255.167969 272.789062 255.160156 272.789062 C 250.320312 271.515625 245.757812 270.007812 241.683594 268.230469 C 227.039062 261.84375 211.835938 259.703125 196.988281 259.988281 L 164.265625 268.675781 L 149.617188 272.5625 C 143.511719 282.015625 129.371094 299.59375 108.695312 299.59375 C 102.496094 299.59375 95.699219 298.417969 88.886719 296.574219 C 83.574219 295.144531 78.234375 293.3125 73.15625 291.335938 C 73.429688 292.144531 90.839844 343.660156 55.957031 375.332031 L 42.964844 354.671875 C 42.964844 354.671875 85.765625 337.84375 42.964844 273.585938 L 55.957031 262.875 C 55.957031 262.875 76.59375 275.878906 94.9375 257.523438 C 94.9375 257.523438 59.777344 237.632812 77.359375 193.261719 C 84 176.503906 94.125 169.894531 105.066406 168.164062 L 110.210938 166.789062 L 225.984375 135.859375 C 241.554688 104.398438 271.730469 61.167969 317.351562 70.101562 C 317.351562 70.101562 330.34375 54.039062 341.808594 54.039062 L 338.75 80.046875 Z M 374.675781 161.140625 " fill-opacity="1" fill-rule="nonzero"/></g><path fill="#8c4c35" d="M 362.988281 172.839844 L 361.277344 174.546875 C 355.589844 180.238281 346.371094 180.238281 340.683594 174.546875 L 336.839844 170.703125 L 323.003906 167.402344 C 307.140625 163.625 295.203125 150.519531 292.890625 134.367188 C 292.890625 134.367188 288.574219 141.730469 288.574219 153.832031 C 288.574219 160.144531 289.75 167.730469 293.320312 176.238281 C 271.066406 162.492188 269.46875 130.691406 290.234375 114.78125 L 317.304688 94.042969 C 308.445312 103.117188 330.722656 157.910156 361.953125 172.335938 C 362.308594 172.5 362.652344 172.664062 362.988281 172.839844 Z M 362.988281 172.839844 " fill-opacity="1" fill-rule="nonzero"/><path fill="#455256" d="M 214.933594 285.828125 L 234.804688 301.128906 L 224.105469 319.488281 L 195.0625 305.714844 Z M 214.933594 285.828125 " fill-opacity="1" fill-rule="nonzero"/><path fill="#455256" d="M 336.792969 340.042969 C 330.664062 348.441406 321.53125 355.574219 308.179688 360.027344 L 305.886719 330.195312 L 327.285156 323.308594 Z M 336.792969 340.042969 " fill-opacity="1" fill-rule="nonzero"/><path fill="#8c4c35" d="M 255.160156 272.792969 C 250.320312 271.515625 245.757812 270.011719 241.683594 268.238281 C 227.039062 261.84375 211.835938 259.703125 196.988281 259.988281 L 164.265625 268.675781 L 167.714844 189.824219 L 190.117188 193.679688 C 188.710938 204.503906 206.558594 257.078125 255.160156 272.792969 Z M 255.160156 272.792969 " fill-opacity="1" fill-rule="nonzero"/><g clip-path="url(#1fbdd1d5a8)"><path fill="#8c4c35" d="M 88.886719 296.578125 C 83.574219 295.144531 78.234375 293.316406 73.15625 291.335938 C 73.429688 292.144531 90.839844 343.664062 55.957031 375.332031 L 42.964844 354.671875 C 42.964844 354.671875 85.765625 337.847656 42.964844 273.585938 L 55.957031 262.878906 C 55.957031 262.878906 76.59375 275.878906 94.9375 257.523438 C 94.9375 257.523438 59.777344 237.632812 77.359375 193.269531 C 84 176.503906 94.125 169.894531 105.066406 168.167969 L 110.210938 166.789062 L 112.292969 178.003906 C 112.292969 178.003906 84.886719 219.375 116.507812 251.019531 C 116.507812 251.023438 122.390625 280.933594 88.886719 296.578125 Z M 88.886719 296.578125 " fill-opacity="1" fill-rule="nonzero"/></g><g clip-path="url(#d0a13cd1e1)"><path fill="#455256" d="M 56.992188 342.117188 L 71.96875 352.671875 C 68.613281 360.671875 63.515625 368.472656 55.957031 375.332031 L 42.964844 354.679688 C 42.964844 354.679688 51.355469 351.371094 56.992188 342.117188 Z M 56.992188 342.117188 " fill-opacity="1" fill-rule="nonzero"/></g><path fill="#252c2d" d="M 331.902344 111.792969 C 326.652344 111.792969 324.183594 104.960938 328.269531 101.625 C 332.347656 98.296875 338.558594 102 337.519531 107.179688 C 336.988281 109.835938 334.613281 111.792969 331.902344 111.792969 Z M 331.902344 111.792969 " fill-opacity="1" fill-rule="nonzero"/><path fill="#455256" d="M 292.898438 140.101562 C 292.378906 140.101562 291.847656 140.03125 291.320312 139.878906 C 288.277344 139.007812 286.511719 135.835938 287.382812 132.785156 C 298.664062 93.269531 334.75 75.605469 336.28125 74.875 C 339.136719 73.507812 342.5625 74.714844 343.925781 77.574219 C 345.289062 80.429688 344.085938 83.851562 341.234375 85.222656 C 340.820312 85.421875 308.226562 101.550781 298.40625 135.9375 C 297.6875 138.460938 295.390625 140.101562 292.898438 140.101562 Z M 292.898438 140.101562 " fill-opacity="1" fill-rule="nonzero"/><path fill="#455256" d="M 336.839844 176.441406 C 336.128906 176.441406 335.402344 176.308594 334.699219 176.019531 C 331.761719 174.835938 330.34375 171.492188 331.527344 168.550781 C 341.003906 145.054688 361.328125 134.269531 362.1875 133.824219 C 364.996094 132.363281 368.457031 133.453125 369.917969 136.265625 C 371.375 139.074219 370.289062 142.539062 367.484375 143.996094 C 367.1875 144.15625 349.96875 153.46875 342.160156 172.84375 C 341.257812 175.082031 339.109375 176.441406 336.839844 176.441406 Z M 336.839844 176.441406 " fill-opacity="1" fill-rule="nonzero"/><path fill="#455256" d="M 349.265625 153.566406 C 325.566406 140.371094 305.871094 107.433594 305.042969 106.039062 L 314.910156 100.183594 L 309.976562 103.113281 L 314.910156 100.183594 C 315.09375 100.5 333.863281 131.859375 354.839844 143.535156 Z M 349.265625 153.566406 " fill-opacity="1" fill-rule="nonzero"/><g clip-path="url(#740995f789)"><path fill="#455256" d="M 213.800781 47.210938 L 160.609375 38.144531 L 139.664062 34.582031 C 145.242188 20.261719 159.160156 10.117188 175.441406 10.117188 C 179.265625 10.117188 182.957031 10.675781 186.441406 11.726562 C 201.878906 16.328125 213.238281 30.394531 213.800781 47.210938 Z M 213.800781 47.210938 " fill-opacity="1" fill-rule="nonzero"/></g><g clip-path="url(#4c2bb0a6fa)"><path fill="#2d373a" d="M 186.492188 11.746094 C 173.972656 15.519531 164.144531 25.515625 160.609375 38.144531 L 139.664062 34.582031 C 145.242188 20.261719 159.160156 10.117188 175.441406 10.117188 C 179.265625 10.117188 182.957031 10.675781 186.441406 11.726562 C 186.453125 11.730469 186.476562 11.738281 186.492188 11.746094 Z M 186.492188 11.746094 " fill-opacity="1" fill-rule="nonzero"/></g><path fill="#8c4c35" d="M 293.320312 176.234375 C 293.75 177.261719 294.214844 178.300781 294.71875 179.355469 C 285.421875 184.910156 274.1875 188.277344 261.082031 189.457031 C 246.660156 190.746094 229.972656 189.386719 211.113281 185.363281 C 205.527344 184.167969 199.953125 182.515625 194.558594 180.441406 L 174.253906 172.65625 L 178.363281 161.941406 L 198.660156 169.734375 C 203.5 171.582031 208.488281 173.066406 213.496094 174.140625 C 247.777344 181.453125 273.683594 179.523438 290.601562 168.398438 C 291.296875 170.914062 292.1875 173.527344 293.320312 176.234375 Z M 293.320312 176.234375 " fill-opacity="1" fill-rule="nonzero"/><path fill="#eaeae4" d="M 216.941406 133.261719 L 182.601562 134.050781 L 167.09375 96.351562 L 160.921875 84.082031 C 154.378906 71.101562 135.859375 71.144531 129.371094 84.160156 C 114.523438 113.925781 98.085938 152.128906 105.066406 168.167969 C 114.980469 190.972656 157.78125 195.5625 157.78125 195.5625 L 148.125 272.566406 L 198.28125 272.566406 L 198.28125 266.21875 C 198.28125 257.613281 191.3125 250.640625 182.71875 250.640625 L 191.109375 186 C 191.765625 179.144531 188.679688 172.472656 183.03125 168.550781 L 178.621094 165.484375 L 217.730469 164.570312 C 226.367188 164.351562 233.195312 157.160156 232.972656 148.523438 L 232.972656 148.515625 C 232.757812 139.878906 225.578125 133.039062 216.941406 133.261719 Z M 216.941406 133.261719 " fill-opacity="1" fill-rule="nonzero"/><path fill="#455256" d="M 274.171875 181.441406 C 259.695312 181.441406 243.195312 178.597656 224.761719 172.90625 C 219.304688 171.21875 213.90625 169.078125 208.714844 166.535156 L 189.1875 156.960938 L 194.226562 146.65625 L 213.753906 156.226562 C 218.410156 158.511719 223.25 160.433594 228.140625 161.941406 C 263.808594 172.953125 290.945312 172.679688 308.804688 161.128906 C 325.515625 150.316406 327.824219 133.203125 327.847656 133.035156 L 339.222656 134.453125 C 339.105469 135.367188 336.183594 157.082031 315.03125 170.765625 C 304.027344 177.882812 290.363281 181.441406 274.171875 181.441406 Z M 274.171875 181.441406 " fill-opacity="1" fill-rule="nonzero"/><path fill="#cececc" d="M 117.011719 168.167969 C 110.03125 152.128906 126.46875 113.925781 141.316406 84.160156 C 143.515625 79.742188 147.101562 76.824219 151.136719 75.398438 C 143.257812 72.609375 133.671875 75.535156 129.371094 84.160156 C 114.523438 113.925781 98.085938 152.128906 105.066406 168.167969 C 114.976562 190.972656 157.777344 195.558594 157.777344 195.558594 L 148.125 272.566406 L 160.070312 272.566406 L 168.214844 204.34375 C 169.011719 197.695312 164.390625 191.597656 157.773438 190.621094 C 144.339844 188.644531 123.535156 183.1875 117.011719 168.167969 Z M 117.011719 168.167969 " fill-opacity="1" fill-rule="nonzero"/><path fill="#455256" d="M 198.285156 266.222656 L 198.285156 272.566406 L 148.125 272.566406 L 155.261719 215.613281 L 187.265625 215.613281 L 182.71875 250.640625 C 191.316406 250.640625 198.285156 257.613281 198.285156 266.222656 Z M 198.285156 266.222656 " fill-opacity="1" fill-rule="nonzero"/><path fill="#2d373a" d="M 166.871094 215.613281 L 160.070312 272.566406 L 148.125 272.566406 L 155.261719 215.613281 Z M 166.871094 215.613281 " fill-opacity="1" fill-rule="nonzero"/><path fill="#7fdd36" d="M 232.972656 148.511719 L 232.972656 148.523438 C 233.046875 151.375 232.351562 154.058594 231.078125 156.398438 C 228.492188 161.144531 223.515625 164.417969 217.730469 164.5625 L 178.621094 165.484375 L 172.628906 165.617188 C 167.1875 165.757812 162.144531 163.054688 159.207031 158.625 C 158.652344 157.785156 158.167969 156.878906 157.769531 155.921875 L 154.921875 148.996094 L 117.0625 145.179688 L 105.386719 144 C 109.585938 125.996094 119.808594 103.324219 129.371094 84.15625 C 133.65625 75.546875 143.210938 72.609375 151.082031 75.375 C 151.109375 75.382812 151.121094 75.386719 151.136719 75.394531 C 155.148438 76.800781 158.710938 79.691406 160.921875 84.078125 L 167.09375 96.347656 L 182.601562 134.042969 L 216.941406 133.257812 C 225.578125 133.035156 232.757812 139.875 232.972656 148.511719 Z M 232.972656 148.511719 " fill-opacity="1" fill-rule="nonzero"/><path fill="#70c129" d="M 151.136719 75.398438 C 147.101562 76.824219 143.519531 79.746094 141.316406 84.160156 C 131.546875 103.75 121.082031 127.003906 117.0625 145.183594 L 105.386719 144.003906 C 109.585938 126 119.808594 103.328125 129.371094 84.160156 C 133.65625 75.550781 143.210938 72.613281 151.082031 75.375 C 151.105469 75.382812 151.121094 75.390625 151.136719 75.398438 Z M 151.136719 75.398438 " fill-opacity="1" fill-rule="nonzero"/><path fill="#252c2d" d="M 192.636719 60.613281 C 192.257812 60.613281 191.867188 60.578125 191.476562 60.496094 C 188.375 59.859375 186.378906 56.824219 187.015625 53.71875 L 189.164062 43.253906 C 189.800781 40.148438 192.832031 38.152344 195.929688 38.785156 C 199.03125 39.425781 201.03125 42.457031 200.390625 45.558594 L 198.246094 56.027344 C 197.691406 58.742188 195.300781 60.613281 192.636719 60.613281 Z M 192.636719 60.613281 " fill-opacity="1" fill-rule="nonzero"/><path fill="#455256" d="M 158.90625 67.960938 C 158.609375 67.960938 158.304688 67.953125 158 67.921875 C 153.832031 67.5625 150.320312 64.75 149.066406 60.753906 L 142.824219 40.960938 C 141.871094 37.941406 143.550781 34.71875 146.566406 33.765625 C 149.589844 32.808594 152.808594 34.484375 153.761719 37.507812 L 159.15625 54.636719 L 166.472656 40.550781 C 167.933594 37.738281 171.394531 36.644531 174.203125 38.109375 C 177.011719 39.566406 178.105469 43.027344 176.644531 45.84375 L 168.042969 62.402344 C 166.253906 65.855469 162.734375 67.960938 158.90625 67.960938 Z M 158.90625 67.960938 " fill-opacity="1" fill-rule="nonzero"/><path fill="#70c129" d="M 231.078125 156.402344 C 228.492188 161.144531 223.515625 164.417969 217.730469 164.5625 L 178.621094 165.484375 L 172.628906 165.617188 C 167.1875 165.757812 162.144531 163.054688 159.207031 158.625 C 158.652344 157.785156 158.167969 156.878906 157.769531 155.925781 L 154.921875 148.996094 L 141.261719 115.859375 C 147.308594 114.734375 153.335938 117.917969 155.820312 123.550781 L 168.230469 151.6875 C 169.488281 154.550781 172.324219 156.398438 175.453125 156.398438 Z M 231.078125 156.402344 " fill-opacity="1" fill-rule="nonzero"/><path fill="#e5c691" d="M 232.972656 148.511719 L 232.972656 148.523438 C 233.195312 157.15625 226.367188 164.347656 217.730469 164.5625 L 206.664062 164.820312 L 206.664062 133.496094 L 216.941406 133.257812 C 224.257812 133.070312 230.535156 137.949219 232.40625 144.695312 C 232.742188 145.910156 232.941406 147.191406 232.972656 148.511719 Z M 232.972656 148.511719 " fill-opacity="1" fill-rule="nonzero"/><path fill="#f9dca2" d="M 232.40625 144.695312 C 230.609375 151.152344 224.769531 155.960938 217.730469 156.144531 L 206.664062 156.402344 L 206.664062 133.496094 L 216.941406 133.257812 C 224.257812 133.070312 230.535156 137.949219 232.40625 144.695312 Z M 232.40625 144.695312 " fill-opacity="1" fill-rule="nonzero"/><path fill="#2d373a" d="M 233.742188 50.613281 C 233.269531 53.414062 230.84375 55.386719 228.101562 55.386719 C 227.78125 55.386719 227.460938 55.363281 227.132812 55.308594 L 213.539062 52.992188 L 137.953125 40.117188 C 138.816406 36.222656 140.277344 32.554688 142.226562 29.207031 L 213.117188 41.277344 L 229.058594 43.992188 C 232.175781 44.523438 234.277344 47.492188 233.742188 50.613281 Z M 233.742188 50.613281 " fill-opacity="1" fill-rule="nonzero"/></svg>